<?xml version="1.0" encoding="UTF-8"?>
<svg version="1.1" xmlns="http://www.w3.org/2000/svg" width="256" height="256">
<path d="M0 0 C1.9795166 0.00845947 1.9795166 0.00845947 3.99902344 0.01708984 C37.1645563 0.42910938 66.43238509 13.50926392 90.25 36.3125 C90.99636719 36.99570312 91.74273437 37.67890625 92.51171875 38.3828125 C114.52303484 59.2032895 127.45729234 89.94868833 128.62890625 119.98828125 C129.02389676 135.06216131 128.48997703 149.7506653 124.25 164.3125 C124.04632813 165.03356934 123.84265625 165.75463867 123.6328125 166.49755859 C118.64936279 183.58971443 109.65731439 198.74109703 98.25 212.3125 C97.51007813 213.20453125 96.77015625 214.0965625 96.0078125 215.015625 C90.66408836 221.21510568 84.75000636 226.35612891 78.25 231.3125 C77.48300781 231.90675781 76.71601563 232.50101563 75.92578125 233.11328125 C70.75687628 236.9307238 65.28225984 240.04105068 59.625 243.0625 C58.92036621 243.43955078 58.21573242 243.81660156 57.48974609 244.20507812 C50.17182744 248.02549982 43.64106792 251.02360745 35.25 250.3125 C32.25 248.3125 32.25 248.3125 31.25 245.3125 C31.15589081 243.88252152 31.1147188 242.44868184 31.1081543 241.015625 C31.09760262 239.71782104 31.09760262 239.71782104 31.08683777 238.39379883 C31.08267349 237.45947021 31.07850922 236.5251416 31.07421875 235.5625 C31.05100116 233.57160424 31.02688306 231.58071881 31.00195312 229.58984375 C30.96700389 226.46103187 30.9375868 223.33259558 30.92407227 220.20361328 C31.53711523 201.83579801 31.53711523 201.83579801 23.25 186.3125 C23.25 185.6525 23.25 184.9925 23.25 184.3125 C24.48234375 184.08175781 25.7146875 183.85101563 26.984375 183.61328125 C44.33943087 180.24624936 60.41442214 175.30220021 71.25 160.3125 C80.41059004 146.06945635 81.96268105 127.27372183 79.7890625 110.82421875 C78.10701991 103.19566089 74.8050675 96.21032065 69.5078125 90.40234375 C67.7134618 87.42104678 68.38783504 85.72537334 69.125 82.375 C70.91063939 72.50407421 70.39035409 63.49328516 66.25 54.3125 C56.2934828 54.89817748 47.58999048 58.60061112 39.5 64.3125 C32.27878929 68.71544582 26.12433653 66.59148523 18.43798828 64.77587891 C3.79436378 61.67460695 -13.40222273 62.83495351 -27.6875 66.9375 C-33.81231692 68.20303788 -38.16880538 64.64206414 -43.109375 61.49609375 C-49.72853317 57.34925929 -57.85780534 53.84220162 -65.75 54.3125 C-69.84953829 63.40278056 -70.54137791 72.2799552 -68.375 82 C-67.70110756 85.69310793 -67.38596063 87.55889412 -69.03125 90.96484375 C-70.26509595 92.61955664 -71.54231957 94.24274979 -72.859375 95.83203125 C-81.40942326 107.04955324 -80.67588555 122.94253825 -79.359375 136.265625 C-77.50657585 147.42992756 -72.77653152 161.13396597 -63.90234375 168.80078125 C-51.14256146 177.7627336 -38.16359423 181.92182008 -22.75 184.3125 C-23.73190469 186.28067341 -24.71666817 188.24705086 -25.71484375 190.20703125 C-26.03582031 190.83996094 -26.35679688 191.47289062 -26.6875 192.125 C-27.03941406 192.81464844 -27.39132813 193.50429687 -27.75390625 194.21484375 C-28.68692321 196.17966771 -29.40220991 198.13888194 -30.125 200.1875 C-31.75 203.3125 -31.75 203.3125 -34.1875 204.6875 C-43.75568523 206.36612899 -52.02837524 207.54942159 -60.578125 202.16015625 C-64.3890527 199.19896243 -66.98915915 195.6872452 -69.75 191.75 C-75.06094727 184.23296694 -79.70285739 180.94395195 -88.75 179.3125 C-90.07 179.3125 -91.39 179.3125 -92.75 179.3125 C-91.11934011 182.66974095 -89.53576994 184.59523568 -86.4375 186.5625 C-78.99303988 191.61911442 -75.45486556 200.5739569 -71.55859375 208.39453125 C-67.84181083 214.39115509 -62.12459364 217.25721148 -55.36254883 218.88842773 C-52.67307283 219.32498692 -50.17237911 219.42608116 -47.44921875 219.41015625 C-46.47275391 219.40693359 -45.49628906 219.40371094 -44.49023438 219.40039062 C-43.48283203 219.39201172 -42.47542969 219.38363281 -41.4375 219.375 C-40.41076172 219.37048828 -39.38402344 219.36597656 -38.32617188 219.36132812 C-35.80072118 219.34958184 -33.27539095 219.33315565 -30.75 219.3125 C-30.69194067 223.56244263 -30.65638346 227.81228324 -30.625 232.0625 C-30.60824219 233.2690625 -30.59148437 234.475625 -30.57421875 235.71875 C-30.56777344 236.87890625 -30.56132813 238.0390625 -30.5546875 239.234375 C-30.54421387 240.30268555 -30.53374023 241.37099609 -30.52294922 242.47167969 C-30.75078 245.32225926 -31.18312252 246.94327675 -32.75 249.3125 C-36.43617827 251.15558913 -40.80244466 250.85666987 -44.70898438 249.76513672 C-46.68136249 248.99939588 -48.5871866 248.15419591 -50.5 247.25 C-51.19319336 246.93272949 -51.88638672 246.61545898 -52.60058594 246.28857422 C-72.03708017 237.22448297 -88.68275652 224.32367514 -101.75 207.3125 C-102.41773437 206.47203125 -103.08546875 205.6315625 -103.7734375 204.765625 C-113.76822209 191.72894945 -120.45947122 177.1087968 -124.75 161.3125 C-125.0903125 160.06210938 -125.430625 158.81171875 -125.78125 157.5234375 C-130.29778251 136.98994248 -129.76091539 112.4473293 -123.75 92.3125 C-123.51925781 91.53197266 -123.28851563 90.75144531 -123.05078125 89.94726562 C-117.4069479 71.59734184 -107.90454748 55.2601491 -94.75 41.3125 C-94.27981445 40.80138672 -93.80962891 40.29027344 -93.32519531 39.76367188 C-69.09414947 13.54755051 -35.53161954 -0.15964142 0 0 Z " fill="#000000" transform="translate(127.75,2.6875)"/>
</svg>
